/vscmnt/brussel_pixiu_data/_data_brussel/112/vsc11236/PredSimResults/SUBJ09mtu3D/weighted-trackIG/worker_04.mot
version=1
nRows=4
nColumns=50
inDegrees=yes
endheader
                time	         pelvis_tilt	         pelvis_list	     pelvis_rotation	           pelvis_tx	           pelvis_ty	           pelvis_tz	       hip_flexion_r	     hip_adduction_r	      hip_rotation_r	        knee_angle_r	       ankle_angle_r	         mtp_angle_r	       hip_flexion_l	     hip_adduction_l	      hip_rotation_l	        knee_angle_l	       ankle_angle_l	         mtp_angle_l	    lumbar_extension	      lumbar_bending	     lumbar_rotation	 ercspn_r/activation	 intobl_r/activation	 extobl_r/activation	    abd_r/activation	    add_r/activation	hamstrings_r/activation	bifemsh_r/activation	glut_max_r/activation	iliopsoas_r/activation	rect_fem_r/activation	  vasti_r/activation	gastroc_r/activation	 soleus_r/activation	tib_ant_r/activation	 ercspn_l/activation	 intobl_l/activation	 extobl_l/activation	    abd_l/activation	    add_l/activation	hamstrings_l/activation	bifemsh_l/activation	glut_max_l/activation	iliopsoas_l/activation	rect_fem_l/activation	  vasti_l/activation	gastroc_l/activation	 soleus_l/activation	tib_ant_l/activation	
          1.96997946	         -7.79163964	          4.64526540	         -7.96238899	          2.20637700	          0.98271871	          0.01393706	         -9.98647392	         -4.77376200	          6.48383506	         -6.11242701	         11.28917980	         26.27753571	         31.04991209	          1.27621480	         -5.13562409	         -1.86589075	          6.48158036	          0.21589344	         -0.25173813	         -2.83383753	          3.50307494	          0.03576450	          0.00999999	          0.00999999	          0.06078013	          0.01524413	          0.02358975	          0.14064480	          0.05938398	          0.48883414	          0.00999999	          0.00999999	          0.35266381	          0.29082706	          0.01527472	          0.08964259	          0.13107581	          0.03279287	          0.01218885	          0.07154519	          0.12366766	          0.19925942	          0.00999999	          0.11311949	          0.00999999	          0.00999999	          0.00999999	          0.00999999	          0.26398437	
          1.98311266	         -7.89515081	          4.56072137	         -7.96276766	          2.22430452	          0.98043030	          0.01356040	        -10.29029132	         -4.71487533	          6.07054768	         -7.33084755	         10.71537635	         28.21292141	         31.27153785	          1.37052921	         -4.97775270	         -3.70288646	          6.04537848	          0.21808093	          0.04787727	         -3.13506566	          3.60905855	          0.07965287	          0.00999999	          0.00999999	          0.04986529	          0.04469247	          0.01935352	          0.11538793	          0.04871986	          0.50182444	          0.00999999	          0.00999999	          0.32707343	          0.27479691	          0.01253170	          0.07354465	          0.10753733	          0.02690395	          0.00999999	          0.12313980	          0.10672662	          0.16347658	          0.06987645	          0.09280559	          0.00999999	          0.00999999	          0.02215848	          0.01485683	          0.27565892	
          1.99624586	         -7.97712763	          4.46931852	         -7.91268938	          2.24270275	          0.97840743	          0.01311676	        -10.46711871	         -4.63508709	          5.63346962	         -8.86266861	          9.98793463	         30.22829877	         31.28724836	          1.44820108	         -4.79230418	         -5.43888622	          5.57227251	          0.20077521	          0.37339041	         -3.43973123	          3.68531457	          0.07688897	          0.00999999	          0.00999999	          0.04091052	          0.03666664	          0.02194971	          0.09466666	          0.03997079	          0.48866145	          0.00999999	          0.01808643	          0.29879952	          0.25507767	          0.01028126	          0.06173657	          0.08822587	          0.02207257	          0.06137893	          0.10647503	          0.09561428	          0.13411960	          0.11248102	          0.07613964	          0.00999999	          0.00999999	          0.01817928	          0.01218886	          0.32615156	
          2.00937905	         -8.04084784	          4.36658613	         -7.81332419	          2.26125567	          0.97691448	          0.01257752	        -10.42302087	         -4.52590651	          5.18343153	        -10.81770718	          9.03918650	         32.31784054	         31.11629718	          1.53208407	         -4.63856171	         -6.85767107	          4.94993562	          0.17735079	          0.69192221	         -3.73937200	          3.72799690	          0.10396193	          0.00999999	          0.00999999	          0.03356385	          0.04535907	          0.02027052	          0.07766651	          0.03279287	          0.47177159	          0.00999999	          0.01485683	          0.24822333	          0.21343164	          0.00999999	          0.07125736	          0.07238234	          0.01810879	          0.11862398	          0.12877987	          0.08141191	          0.11003452	          0.16151324	          0.06246655	          0.00999999	          0.00999999	          0.01491466	          0.00999999	          0.35946830	
